PathFileType	4	(X/Y/Z)	Patient4_TMGait_0pt4_02_right_42.trc.trc
DataRate	CameraRate	NumFrames	NumMarkers	Units	OrigDataRate	OrigDataStartFrame	OrigNumFrames
75.268817204301	75.268817204301	4	33	mm	75.268817204301	124	       141
Frame#	Time	Sacral			L.Shoulder			Chest			R.Shoulder			Neck			R.ASIS			L.ASIS			R.Thigh.Superior			R.Thigh.Lateral			R.Thigh.Inferior			R.Patella			L.Thigh.Superior			L.Thigh.Lateral			L.Thigh.Inferior			L.Patella			L.Shank.Superior			L.Shank.Lateral			L.Shank.Inferior			R.Shank.Superior			R.Shank.Lateral			R.Shank.Inferior			R.Heel			R.Midfoot.Superior			R.Midfoot.Lateral			R.Toe			L.Heel			L.Midfoot.Lateral			L.Midfoot.Superior			L.Toe			L.Elbow			L.Wrist			R.Elbow			R.Wrist			
		X1	Y1	Z1	X2	Y2	Z2	X3	Y3	Z3	X4	Y4	Z4	X5	Y5	Z5	X6	Y6	Z6	X7	Y7	Z7	X8	Y8	Z8	X9	Y9	Z9	X10	Y10	Z10	X11	Y11	Z11	X12	Y12	Z12	X13	Y13	Z13	X14	Y14	Z14	X15	Y15	Z15	X16	Y16	Z16	X17	Y17	Z17	X18	Y18	Z18	X19	Y19	Z19	X20	Y20	Z20	X21	Y21	Z21	X22	Y22	Z22	X23	Y23	Z23	X24	Y24	Z24	X25	Y25	Z25	X26	Y26	Z26	X27	Y27	Z27	X28	Y28	Z28	X29	Y29	Z29	X30	Y30	Z30	X31	Y31	Z31	X32	Y32	Z32	X33	Y33	Z33	

124	56.964142857143	815.502237231187	1001.033128250174	471.956468136195	1005.498042277596	1429.763576632268	296.954601597209	1092.729544403445	1366.440737628027	468.721505557784	990.645649755488	1439.120451981017	633.241493736841	967.774229457553	1493.326259488244	451.842477657736	1037.061896317965	940.435759074585	605.185202754467	1040.421231382624	961.679147831278	330.193563149619	1096.567502168746	751.305575353447	584.803475998824	1033.708193262634	635.194645168916	655.086924726564	1122.197804323011	589.913165124227	579.575256586797	1143.976403105922	509.816249586686	594.354362590271	1046.381958311005	733.308689252289	356.503412881148	935.196826428369	636.296456380428	287.287430097567	995.844270514394	544.643511286379	352.093814395904	982.113753741303	479.082550328628	360.018041521388	951.348526090908	411.860435427804	349.918857012325	852.270368687532	305.748886758229	295.847576288587	893.551340732597	189.784015253202	367.537258924100	1127.225108139172	422.243256186572	607.027819989457	1069.809028618197	311.893566910982	671.536410172729	1137.608509362529	223.480939930270	622.758784146080	1041.316447105797	43.206291481033	598.710775459090	1206.805966856113	107.769837551018	635.908291669536	1124.931680534214	39.620818021892	672.894600574796	1329.725356083267	65.583488236530	662.654334339097	757.919193030153	38.265341596792	410.943381454193	830.176225160024	35.027853081713	328.647085209290	914.212387302834	95.466130283702	355.173250663082	1042.540704029783	42.221547007712	324.388936224158	1066.739888989128	1102.794002343731	141.283410944762	1320.365740488772	1044.853561584395	146.215097462092	871.051159970252	1110.968670214536	737.188720173610	881.706517420492	848.689531596855	723.292531659988	
125	56.977428571429	817.385412514216	999.575396019228	474.900848095880	1004.778169255420	1429.042150415520	300.015938008084	1092.749534871689	1366.178843832874	471.640896010702	990.430873206054	1438.134154133292	636.407161138833	967.277322781723	1492.474624441924	454.995693927945	1039.327665359973	939.555422416182	607.557998460112	1042.062915132486	961.227313855129	332.704242501423	1099.637810642780	750.196862072495	586.383947131612	1035.306924902790	633.765780140376	655.233030175096	1123.864612507979	589.059637994030	579.763989000502	1144.254976284077	507.813885076270	593.602534828058	1046.710132321699	732.144612315748	357.976263839095	934.220170263723	636.053531136317	289.146356272844	994.386182605949	543.735744523760	353.453197316882	980.415012354550	477.881572438406	361.150996617364	948.758912012284	411.115629089666	351.037761151964	848.376473083317	306.128069908513	297.003120038379	888.935643012288	189.395324728504	367.961360792278	1126.318482775365	419.463771753873	606.267222346354	1066.706137572537	310.053395082938	670.649613356028	1132.130828199255	220.364909437886	621.191252535994	1031.506205538343	42.752077630969	597.247114786374	1198.115468258769	104.277482385774	633.934929260868	1115.014717671330	38.218766307403	671.618344820179	1320.577100219047	60.042853801692	660.962795420614	752.478050895380	38.089707134756	410.941098630607	824.780567308729	34.873699244164	328.707147862415	908.826611166410	95.423790355936	355.221110931493	1037.177318053972	42.131762681059	324.353416185384	1064.757461032061	1100.857192541830	145.529761683644	1317.708770164261	1038.430505213521	149.510219980969	874.992688934707	1108.452907385964	741.153174089121	891.250106330581	846.444216265088	728.269086259247	
126	56.990714285714	819.262624507742	998.204315542644	477.911618350341	1004.091480062568	1428.480284516911	303.241766612218	1092.795593544691	1365.997191441750	474.698018638642	990.264737165075	1437.157500363952	639.740509289261	966.828510506235	1491.734499448080	458.335337584395	1041.644108435007	938.886856615374	609.998087989405	1043.725978848505	960.852373767448	335.266249794332	1102.929278722280	749.408540930497	587.848731654589	1037.495287086617	632.792790341410	655.562705286980	1125.902490926458	588.558412573966	579.933641592233	1144.950453696219	506.133283342789	592.984182711814	1047.429482627963	731.102096033495	359.558220570915	933.837967878486	635.688656345220	291.208571461228	993.795620572337	542.792864755414	354.961240356567	979.698106574756	476.464507827269	362.391074615051	946.921682480935	410.174772533154	352.293151550213	844.995605898122	306.557259781964	298.329497052198	884.540250557936	188.941073464566	368.464035956952	1125.946913368395	417.107632237072	605.756885381553	1064.501483295684	308.644451369378	670.333868829264	1127.401041627841	217.709320273390	619.971716402337	1022.540674994208	42.465253521648	596.377941764675	1190.144586241690	101.496108115212	632.357273816744	1106.041525902123	37.242665174610	670.837199306400	1312.259132902004	55.560107912210	659.554892193580	747.017524725662	38.022932008709	410.930249913908	819.398589428238	34.740693126712	328.794539264790	903.505864930848	95.383900283840	355.273594417494	1031.853920835310	41.974308031041	324.310370097770	1062.373483266012	1098.968991786885	149.945519938012	1314.343620643819	1030.995113664266	152.626883279112	879.420631642004	1105.802379695216	745.269819763151	901.831548761390	844.207927040113	733.706743738510	
127	57.004000000000	821.088668647818	996.986384429491	480.971285515629	1003.462767689586	1428.126103849870	306.601493722073	1092.865259043046	1365.918002998587	477.860029541681	990.166576902624	1436.239548231313	643.201708814830	966.440735464537	1491.152165966510	461.828764055654	1043.940926603026	938.467930011050	612.513773450658	1045.386967871513	960.590041040620	337.868741018052	1106.268118438796	748.964776219839	589.242026137016	1040.143728478593	632.277492479889	656.161586631359	1128.182803758098	588.381948712658	580.188884427197	1145.957134892261	504.805905900030	592.653431690786	1048.568386464841	730.237344753839	361.281190280331	934.151816732020	635.198565600327	293.468695415153	994.232805119327	541.834361484992	356.600645102566	980.129162365206	474.833713565844	363.689488828120	945.970443037065	409.046199178507	353.646914455734	842.239252076623	307.086135974098	299.807009909651	880.445101140140	188.476875101096	369.023385811898	1126.017335536851	415.221755673865	605.571998243362	1063.139148605034	307.660994913948	670.591043641007	1123.464284412821	215.579071772448	619.139469350958	1014.640859530651	42.325297509136	596.006712049304	1183.061619321255	99.477448542932	631.220140677465	1098.196045394271	36.657080805083	670.488536484024	1304.928759856734	52.236738202069	658.506962459088	741.560676207017	38.200371084505	410.904580798034	814.048026512112	34.696973652522	328.905582948137	898.301854901311	95.368477842787	355.311932720067	1026.577497036517	41.740777645657	324.256867023338	1059.622749548073	1097.190819983936	154.535526665909	1310.190291563830	1022.555110655705	155.553534975573	884.337961901405	1103.103207800227	749.512061256335	913.399751224859	842.106714920633	739.512282502949	
